<svg xmlns="http://www.w3.org/2000/svg" version="1.1" id="Layer_1" x="0" y="0" style="enable-background:new 0 0 510 521" xml:space="preserve" viewBox="0 0 510 521"><style>.st0{fill:#fff}.st1{fill:#050505}</style><path class="st0" d="M0 0h510v520H0z"></path><path d="M2.37 437.81h505.66v80.74H2.37z"></path><g id="XMLID_1_"><path class="st1" d="M437.43 22.19c18.5-.01 36.99.01 55.49-.01-.54 44.7-1.24 89.39-1.96 134.08-.45 13.83-2.1 28.17-8.95 40.46-6.06 11.02-16.84 18.75-28.48 23.04-5.53 1.66-11.31 2.22-17.03 2.78-23.32 1.86-46.74 1.29-70.1 1.16-8.63-.2-17.27-.37-25.9-.49-11.57-.39-23.26.44-34.7-1.79-13.02-2.32-26.02-8.27-34.15-19.05-6.93-8.89-9.68-20.19-10.62-31.23-2.63-27.65-2.96-55.45-3.55-83.19-.3-21.5-.44-43-.37-64.51 18.68.04 37.38-.09 56.07.07.4 6.97-.06 13.99.24 20.98.3 30.54.56 61.07 1.4 91.59.42 9.11.06 19.14 5.62 26.92 3.94 5.62 10.98 7.62 17.47 8.33 10.52 1.11 21.12.97 31.68 1.2 13.69 0 27.4-.06 41.08-.93 6.09-.33 12.55-2.08 16.77-6.75 4.47-4.99 6.39-11.67 7.78-18.08 1.57-14.05 1.53-28.22 1.93-42.34.32-15.98.25-31.96.48-47.95-.08-11.42.1-22.87-.2-34.29zM492.23 297.11c-.01 36.01 0 72.01 0 108.02-.25 11.04-9.96 20.81-20.99 21.16-8.21.03-16.41-.01-24.61.01-6.07.13-12.01-2.6-16.19-6.95-3.92-4.13-6.16-9.79-6.11-15.48.01-34.53.01-69.05 0-103.59-.09-3.4.09-6.89 1.35-10.09 2.72-7.58 9.82-13.42 17.82-14.47 7.95-.54 15.95-.09 23.93-.25 4.21-.18 8.55.34 12.34 2.29 7.27 3.53 12.39 11.25 12.46 19.35zm-34.8 103.25c2.84.99 6.01-1.74 5.74-4.69.01-29.7.02-59.4-.01-89.09.18-3.17-3.52-5.6-6.37-4.21-1.59.73-2.74 2.43-2.61 4.2-.01 29.7 0 59.39-.01 89.08-.22 2.08 1.2 4.19 3.26 4.71z"></path><path class="st0" d="M489.27 477.22c-.63 1.69-3.2 1.76-3.24 3.8-.57 5.36-.12 10.79-.27 16.17-4.14 2.95-9.28 5.51-14.49 4.31-5.69-1.23-9.87-6.13-11.7-11.45-2.1-6.17-2.24-12.94-.81-19.27 1.17-4.91 3.59-9.86 7.9-12.75 3.48-2.43 8.23-2.72 12.07-.97 1.21.4 2.45 1.18 3.77.92.91-.66 1.55-1.64 2.2-2.53.66 4.97.51 10.02.57 15.05-.28-.2-.83-.63-1.1-.83-1.15-3.28-2.21-6.9-5.03-9.18-3.16-2.67-8.33-2.25-11.02.9-3.49 3.96-4.35 9.48-4.74 14.57-.3 6.74.09 14.25 4.57 19.69 3.01 3.94 9.68 4.55 13.04.78.43-2.6.09-5.26.2-7.89-.11-2.71.33-5.5-.44-8.14-.5-1.45-2.15-1.7-3.42-2.03-.06-.28-.19-.86-.25-1.15 4.07-.09 8.13-.13 12.19 0zM424.79 456.81c-.1 1.81-2.08 1.47-3.26 2.19-1.1.83-1.5 2.25-1.46 3.58-.08 13.22.12 26.44-.1 39.66-1.71-1.69-2.62-3.96-3.8-6-5.7-10.19-11.31-20.43-17.06-30.6-.03 10.16-.11 20.32.03 30.47-.04 2.41 2.44 3.33 4.45 3.51-.04.3-.11.92-.15 1.23-3.65-.01-7.3-.01-10.95 0-.04-.3-.11-.92-.15-1.23 2.01-.2 4.67-1.02 4.48-3.54.06-10.94 0-21.89.03-32.84.2-2.53-1.85-4.67-4.21-5.24-.14-.29-.41-.86-.55-1.15 2.79-.11 5.59-.06 8.38-.07 5.81 10.59 11.62 21.17 17.55 31.68-.08-8.91.13-17.83-.11-26.73.06-2.45-2.34-3.27-4.26-3.76-.13-.28-.39-.86-.52-1.15 3.89-.07 7.78-.06 11.66-.01z"></path><path class="st1" d="M413.48 290.85c.94 2.61 1.16 5.4 1.06 8.15-.01 11.95-.01 23.9 0 35.85-9.69.01-19.37.01-29.06 0-.03-9.42.02-18.85-.02-28.27.09-2.22-1.71-4.34-3.92-4.55-2.59-.47-5.24 1.86-5.05 4.49-.01 29.7 0 59.4-.01 89.1-.4 2.92 2.81 5.71 5.63 4.71 2.04-.52 3.54-2.56 3.36-4.67.03-12.44-.03-24.89.03-37.34 9.68.31 19.37.55 29.06.68-.04 15.37-.01 30.74-.02 46.12-.22 11.03-9.99 20.82-21 21.14-6.1.04-12.2 0-18.29.02-4.85-.06-9.92.48-14.48-1.52-8.18-3.16-14.02-11.48-14.1-20.26-.04-33.69-.01-67.36-.01-101.04-.01-4.43-.29-9.01 1.33-13.23 2.91-8.21 10.97-14.3 19.7-14.7 7.78-.13 15.56-.01 23.34-.06 9.8-.6 19.53 5.96 22.45 15.38z"></path><path class="st0" d="m356.13 499.71-.66 1.04c-4.49.21-9 .01-13.5.09-.04-.3-.13-.92-.18-1.23 1.31-.33 2.93-.31 3.83-1.48.9-1.09.83-2.6.86-3.92-.03-10.32-.02-20.66-.01-30.98-.03-1.4-.03-3.08-1.19-4.06-1.16-.75-2.57-.92-3.85-1.34.21-.25.66-.73.88-.97 4.59-.18 9.19-.08 13.79-.03-.33 1.9-2.65 1.35-3.76 2.48-1.23 1.17-1.09 3.01-1.14 4.57.08 10.76-.13 21.55.11 32.3.04 2.58 2.78 3.22 4.82 3.53z"></path><path class="st1" d="M336.5 364.05c.07 13.06.01 26.12.03 39.19-.33 5.84-2.82 11.51-6.74 15.83-4.08 4.34-9.87 7.19-15.88 7.24-8.41-.03-16.82.01-25.22-.03-11.04-.34-20.68-10.11-20.99-21.12-.03-11.65-.01-23.29-.01-34.93 9.9.03 19.79-.01 29.69.01.02 8.48-.04 16.96.03 25.42-.07 1.84.96 3.73 2.7 4.44 2.68 1.45 6.28-.84 6.36-3.82.14-5.48 0-10.97.05-16.44-.04-3.4.3-6.98-1.14-10.16-1.47-3.07-4.38-5.07-7.25-6.68-6.42-3.56-12.84-7.14-19.3-10.63-3.18-1.45-5.99-3.78-7.69-6.87-2.71-4.91-3.42-10.66-3.46-16.19.03-10.93-.03-21.87.03-32.81.38-11 10.07-20.61 21.06-20.97 8.58-.08 17.16-.07 25.75-.01 10.98.39 20.67 10 21.03 21 .06 10.35 0 20.71.03 31.07-9.68-.01-19.37-.03-29.05 0-.05-7 .03-13.99-.03-20.98.06-2.65-2.53-5.1-5.19-4.57-2.19.27-3.9 2.32-3.89 4.52-.11 4.61-.07 9.24-.01 13.86.16 3.25.37 6.65 1.87 9.61.9 2.04 3.32 2.41 5.11 3.34 7.42 3.53 14.72 7.33 21.79 11.53 2.58 1.49 5.1 3.27 6.78 5.79 2.73 3.89 3.03 8.79 3.54 13.36z"></path><path class="st0" d="M303.66 468.41c-1.45.43-1.31-1.09-1.53-1.9-.43-2.24-.77-4.99-2.91-6.29-2.06-.74-4.31-.36-6.44-.44.03 12.11-.04 24.23.03 36.35-.11 2.29 2.12 3.26 4.03 3.52-.04.3-.14.9-.19 1.19-4.35-.06-8.7.09-13.04-.11.3-1.79 2.5-1.29 3.46-2.43.8-.96.85-2.26.85-3.44-.03-11.69-.01-23.38-.01-35.08-2.3.13-4.88-.5-6.95.76-2.07 1.89-2.09 4.93-2.72 7.45-.3.16-.92.47-1.23.63.13-3.95.15-7.9.33-11.85 8.67.01 17.33 0 25.99 0 .18 3.88.21 7.75.33 11.64z"></path><path class="st1" d="M257.25 297.13c-.01 35.99.03 71.98-.02 107.97-.27 11.05-9.94 20.83-20.98 21.19-8.64.03-17.28.03-25.91 0-11.04-.37-20.72-10.13-20.97-21.17-.02-34.74 0-69.47-.01-104.19-.04-3.19-.13-6.45.9-9.51 2.19-7.43 8.47-13.41 15.99-15.25 3.8-1 7.76-.58 11.64-.66 6.32.06 12.64-.13 18.96.09 10.93.69 20.3 10.56 20.4 21.53zm-31.74 102.94c1.98-.79 2.85-3.03 2.69-5.04-.03-29.47.04-58.93-.04-88.4.15-3.34-3.9-5.91-6.78-4.01-1.84 1.01-2.49 3.22-2.34 5.21.02 27.8.01 55.59.01 83.39.03 1.91-.13 3.84.15 5.74.5 2.68 3.87 4.5 6.31 3.11zM242.08 145.2c.01 14.01 0 28.02.01 42.03-.06 8.86-4.46 17.36-11.21 23-8.26 6.99-18.86 10.5-29.37 12.4-14.38 2.62-29.06 1.5-43.58 1.36-27.59-.71-55.19-1.02-82.79-.92-14.12-.12-29.04-2.32-40.71-10.86-9.39-6.73-15.27-17.48-17.45-28.7-1.96-8.95-1.44-18.15-1.49-27.24-.71-22.96-.68-45.94-.21-68.9.16-11.64-.04-23.65 4.27-34.67 3.68-10.12 11.19-18.78 20.79-23.69 12.59-6.65 27.14-7.86 41.13-8.1 33.06-1.26 66.13-1.43 99.2-1.42 14.59.24 29.79 2.89 41.97 11.4 11 7.58 18.28 20.37 18.8 33.76.02 10.21 0 20.42.01 30.64-18.06-.01-36.11.01-54.17-.01-.54-2.84-.99-5.69-1.14-8.57-.25-2.55.23-5.26-.95-7.64-1.38-2.81-4.18-4.64-7.06-5.65-5.46-1.98-11.36-1.85-17.07-1.82-21.05-.3-42.09-1.08-63.14-.68-7.36-.1-15.02 2.18-20.32 7.48-4.9 4.81-7.32 11.66-7.54 18.44-.77 14.32.11 28.66.22 42.99-.09 8.02-.3 16.86 4.64 23.68 4.16 5.89 11.71 8 18.6 8.03 26.1.07 52.21.01 78.31.03 3.18.03 6.48-.49 9.17-2.29 4-2.74 6.27-7.6 6.3-12.38.01-3.9-.02-7.8-.01-11.7h54.79z"></path><path class="st0" d="m240.69 499.6-.04 1.25c-4.3-.03-8.59-.01-12.89-.01-.03-.3-.08-.9-.11-1.19 1.72-.33 3.91-.88 4.06-2.99.29-5.6.04-11.22.13-16.82-4.59 0-9.17-.02-13.75 0-.02 4.78.01 9.56-.02 14.35-.01 1.4-.01 2.94.86 4.16.87.9 2.22.94 3.36 1.3-.03.3-.11.91-.15 1.21-4.29-.03-8.57-.01-12.85 0-.04-.3-.11-.9-.14-1.21 1-.33 2.19-.35 2.99-1.11 1.23-1.05 1.11-2.82 1.21-4.3.02-10.11-.01-20.21.01-30.32-.06-1.43-.01-2.97-.73-4.24-.86-1.53-3.51-.81-3.68-2.83 4.37-.13 8.74-.01 13.12-.06.07.3.21.9.28 1.21-1.23.44-2.84.47-3.58 1.71-.81 1.25-.68 2.8-.69 4.24.04 4.35 0 8.7.02 13.06 4.58.01 9.17 0 13.75 0-.01-4.8 0-9.6-.01-14.39.01-1.18-.16-2.48-1.04-3.34-1.05-1-3.1-.72-3.39-2.42 4.54-.13 9.08-.07 13.62-.04-.21 2.1-2.99 1.35-3.76 2.97-.66 1.04-.49 2.32-.53 3.51.04 10.95-.03 21.89.04 32.84-.19 2.2 2.02 3.31 3.91 3.46z"></path><path class="st1" d="M180.18 306.59c.01 39.48-.01 78.96.01 118.45-9.9-.01-19.79.01-29.69-.01-.01-35.69 0-71.39-.01-107.08-.17-3.3-.06-6.82-1.61-9.84-1.03-2.19-4.62-2.03-5.65.07-1.4 2.6-1.56 5.64-1.72 8.53-.34 10.11-.08 20.23-.16 30.34-.33 8.19-.09 16.4-.16 24.62-.41 9.26.08 18.53-.32 27.79.01 8.53.03 17.06-.16 25.58h-29.68V245.96h31.08c-.27 12.85-.56 25.7-.63 38.56 5.9-3.6 12.57-6.7 19.65-6.25 5.12.26 9.99 3 12.96 7.16 4.44 6.06 5.85 13.79 6.09 21.16z"></path><path class="st0" d="M173.05 477.31c-.31 1.25-1.81 1.42-2.66 2.22-.73 1.14-.78 2.56-.79 3.88 0 4.59.05 9.17-.02 13.76-4.34 3.05-9.78 5.7-15.19 4.16-6.27-1.74-10.36-7.68-11.79-13.76-1.65-7.16-1.35-14.93 1.57-21.73 2.22-5.25 7.07-10.04 13.11-9.89 2.93-.22 5.46 1.45 8.21 2.08 1.55.12 2.02-1.84 3.24-2.46.04 4.98.51 9.96.27 14.93-1.33-.54-1.4-2-1.86-3.12-1.04-3.22-2.81-6.57-6.03-8.04-3.49-1.59-7.82-.21-9.97 2.9-3.31 4.66-3.9 10.61-4.11 16.16-.03 6.03.8 12.63 4.84 17.4 3.06 3.76 9.39 4.24 12.8.73.65-2.4.24-4.93.35-7.38-.12-3 .37-6.13-.63-9.01-.39-1.84-3.9-.85-3.47-2.94 4.05-.03 8.1-.22 12.13.11zM104.87 499.57c-.01.32-.01.95-.01 1.26-4.54.01-9.08-.02-13.63.01-.06-.3-.17-.9-.23-1.21 1.98-.21 4.59-1.1 4.48-3.56.15-10.94 0-21.89.07-32.83-.01-1.4.04-3.05-1.14-4.04-1-.74-2.27-.85-3.42-1.19.06-.31.19-.93.25-1.24 4.63.03 9.27-.02 13.9.03-.02 1.56-1.59 1.51-2.68 1.93-1.35.37-2.16 1.84-2.02 3.21 0 11.4-.03 22.8.01 34.21-.14 2.43 2.45 3.27 4.42 3.42z"></path><path class="st1" d="M101.86 271.85c-.01 22.73.01 45.46-.01 68.2-.16 6.6-1.73 13.53-6.13 18.64-4.12 4.8-10.53 7.12-16.75 7.13-7.06-.01-14.11 0-21.17-.01-.01 19.95-.01 39.9 0 59.85-12.11-.01-24.21-.01-36.32 0V245.85c13.47-.46 26.95-.93 40.43-1.16 8.43.13 17.13-1.12 25.31 1.5 4.63 1.38 8.68 4.59 10.98 8.84 2.8 5.13 3.52 11.08 3.66 16.82zm-33.79 17.08c-.2-4.02.73-8.15-.43-12.08-.85-2.81-4.42-2.84-6.73-2.16-2.24.8-4.37 2.8-4.36 5.33-.04 17.92.01 35.85-.02 53.77-.07 1.68.57 3.74 2.48 4.02 2.52.45 5.96.44 7.47-2.02 1.4-2.78.8-6.01 1.09-9-.04-12.62.36-25.24.5-37.86z"></path><path class="st0" d="M53.03 489.41c.3-.13.9-.4 1.2-.54-.54 4.02-1.46 7.98-2.18 11.97-8.22.01-16.44-.01-24.65.01-.04-.3-.13-.89-.18-1.19 1.92-.24 4.09-1.31 4.02-3.56.09-11.15.01-22.3.04-33.47-.01-1.36-.17-3.16-1.64-3.72-.92-.64-2.63-.54-2.62-2.07 4.33-.13 8.67-.03 13-.06.06.3.17.88.23 1.17-1.76.45-4.02 1.18-4.05 3.39-.07 11.38-.04 22.77-.02 34.16-.13 1.81 2.08 2.45 3.53 2.48 3.1.03 6.57.35 9.24-1.57 2.28-1.69 2.95-4.57 4.08-7z"></path></g><path d="M505 5v511H5V5h500m5-5H0v521h510V0z"></path></svg>