<?xml version="1.0" encoding="utf-8"?>
<!-- Generator: Adobe Illustrator 16.0.0, SVG Export Plug-In . SVG Version: 6.00 Build 0)  -->
<!DOCTYPE svg PUBLIC "-//W3C//DTD SVG 1.0//EN" "http://www.w3.org/TR/2001/REC-SVG-20010904/DTD/svg10.dtd" [
	<!ENTITY ns_extend "http://ns.adobe.com/Extensibility/1.0/">
	<!ENTITY ns_ai "http://ns.adobe.com/AdobeIllustrator/10.0/">
	<!ENTITY ns_graphs "http://ns.adobe.com/Graphs/1.0/">
	<!ENTITY ns_vars "http://ns.adobe.com/Variables/1.0/">
	<!ENTITY ns_imrep "http://ns.adobe.com/ImageReplacement/1.0/">
	<!ENTITY ns_sfw "http://ns.adobe.com/SaveForWeb/1.0/">
	<!ENTITY ns_custom "http://ns.adobe.com/GenericCustomNamespace/1.0/">
	<!ENTITY ns_adobe_xpath "http://ns.adobe.com/XPath/1.0/">
]>
<svg version="1.0" id="Capa_1" xmlns:x="&ns_extend;" xmlns:i="&ns_ai;" xmlns:graph="&ns_graphs;"
	 xmlns="http://www.w3.org/2000/svg" xmlns:xlink="http://www.w3.org/1999/xlink" x="0px" y="0px" width="911px" height="215px"
	 viewBox="0 0 911 215" enable-background="new 0 0 911 215" xml:space="preserve">
<metadata>
	<sfw  xmlns="&ns_sfw;">
		<slices></slices>
		<sliceSourceBounds  width="901.137" height="193.995" x="41.432" y="50.003" bottomLeftOrigin="true"></sliceSourceBounds>
	</sfw>
</metadata>
<g>
	<path fill="#86858A" d="M228.492,154.588V57.936h43.561c18.243,0,31.581,16.607,31.581,32.673c0,11.84-6.126,22.731-15.789,28.042
		l22.192,35.937h-25.189l-19.461-31.17h-14.571v31.17H228.492z M250.816,103.951h20.419c5.311,0,9.668-5.585,9.668-13.342
		c0-7.894-5.308-13.069-10.345-13.069h-19.742V103.951z"/>
	<rect x="321.719" y="57.939" fill="#86858A" width="22.324" height="96.648"/>
	<path fill="#86858A" d="M357.788,106.127c0-25.593,19.601-48.736,46.419-48.736c27.632,0,45.875,24.638,45.875,49.143
		c0,25.459-19.468,48.869-46.285,48.869C376.301,155.403,357.788,131.034,357.788,106.127 M404.071,135.529
		c15.518,0,23.275-14.976,23.275-29.402c0-14.975-8.438-28.861-23.412-28.861c-15.515,0-23.414,14.567-23.414,29.135
		C380.52,121.234,388.822,135.529,404.071,135.529"/>
	<path fill="#3DBF33" d="M504.787,57.392c17.15,0,30.489,8.576,36.618,21.104l-17.15,11.976
		c-3.952-10.207-12.932-13.205-20.016-13.205c-15.788,0-23.275,14.974-23.275,28.994c0,15.384,9.257,29.271,23.55,29.271
		c7.35,0,16.204-3.678,19.741-13.342l18.373,10.759c-5.715,14.289-23.413,22.455-38.661,22.455
		c-26.812,0-45.738-25.183-45.738-49.958C458.229,82.034,475.379,57.392,504.787,57.392"/>
	<polygon fill="#3DBF33" points="554.728,154.588 554.728,57.94 577.052,57.94 577.052,134.984 623.881,134.984 623.881,154.588 	
		"/>
	<path fill="#3DBF33" d="M626.043,154.588l37.162-96.649h18.104l37.026,96.649h-23.684l-7.487-21.644h-30.087l-7.35,21.644H626.043z
		 M672.19,81.622l-11.573,35.941h22.731L672.19,81.622z"/>
	<path fill="#3DBF33" d="M727.849,154.588V57.936h43.56c18.242,0,31.582,16.607,31.582,32.673c0,11.84-6.125,22.731-15.788,28.042
		l22.189,35.937h-25.188l-19.461-31.17h-14.569v31.17H727.849z M750.173,103.951h20.418c5.312,0,9.668-5.585,9.668-13.342
		c0-7.894-5.309-13.069-10.345-13.069h-19.741V103.951z"/>
	<path fill="#3DBF33" d="M814.274,106.127c0-25.593,19.602-48.736,46.418-48.736c27.636,0,45.876,24.638,45.876,49.143
		c0,25.459-19.468,48.869-46.285,48.869C832.785,155.403,814.274,131.034,814.274,106.127 M860.556,135.529
		c15.517,0,23.28-14.976,23.28-29.402c0-14.975-8.442-28.861-23.416-28.861c-15.52,0-23.417,14.567-23.417,29.135
		C837.003,121.234,845.308,135.529,860.556,135.529"/>
	<path fill="#3DBF33" d="M102.423,10.002c-53.553,0-96.991,43.434-96.991,96.996c0,53.569,43.438,96.999,96.991,96.999
		c53.567,0,96.995-43.43,96.995-96.999C199.418,53.437,155.99,10.002,102.423,10.002 M130.646,126.941
		c-1.013,7.616-2.96,27.613-2.96,27.613s0.061,1.754-1.25,2.813c-4.86,3.944-26.479,20.553-34.622,26.783
		c-1.805,1.386-3.576,0.947-3.576,0.947l-29.439-4.396c0,0-3.818-0.878-0.476-3.438c15.443-11.921,61.957-47.539,69.516-53.771
		C131.27,120.651,130.744,126.173,130.646,126.941 M134.118,79.411c-1.03,7.618-2.971,27.618-2.971,27.618s0.064,1.737-1.244,2.809
		c-4.864,3.953-26.488,20.553-34.634,26.784c-1.794,1.385-3.558,0.949-3.558,0.949l-29.448-4.398c0,0-3.817-0.879-0.475-3.447
		c15.442-11.903,61.953-47.53,69.515-53.762C134.75,73.125,134.204,78.645,134.118,79.411 M137.655,33.069
		c-1.009,7.625-2.966,27.628-2.966,27.628s0.069,1.745-1.233,2.81c-4.866,3.943-26.502,20.545-34.627,26.782
		c-1.809,1.382-3.583,0.95-3.583,0.95L65.808,86.85c0,0-3.812-0.885-0.484-3.448c15.457-11.918,61.971-47.537,69.514-53.771
		C138.288,26.789,137.758,32.312,137.655,33.069"/>
</g>
</svg>
